# xmcd CD database file generated by LOLA_Freedb v0.9beta0
# 
# Track frame offsets:
#      150
#      12618
#      25867
#      41371
#      58749
#      72025
# 
# Disc length: 1161 seconds
# 
# Revision: 0 
# Processed by: cddbd v1.5.2PL0 Copyright (c) Steve Scherf et al.
# Submitted via: LOLA_Freedb v0.9beta0
# 
DISCID=48048706
DTITLE=Michal Tucny and Tomas Linka - Vzpominka na Hostice
DYEAR=2002
DGENRE=
TTITLE0=Tomas Linka - Hosticka Hymna
TTITLE1=Michal Tucny - Slamu v botach nosim
TTITLE2=Tomas Linka - Pani ma se ma
TTITLE3=Michal Tucny - Stastne stare slunce
TTITLE4=Tomas Linka - Necekej uz dal
TTITLE5=Michal Tucny - Pane muj
EXTD=
EXTT0=
EXTT1=
EXTT2=
EXTT3=
EXTT4=
EXTT5=
PLAYORDER=
